<svg xmlns="http://www.w3.org/2000/svg" viewBox="0 0 64 64" fill="none">
  <defs>
    <linearGradient id="bg" x1="0" y1="0" x2="64" y2="64" gradientUnits="userSpaceOnUse">
      <stop offset="0%" stop-color="#6366f1"/>
      <stop offset="50%" stop-color="#a855f7"/>
      <stop offset="100%" stop-color="#ec4899"/>
    </linearGradient>
    <linearGradient id="page" x1="18" y1="10" x2="46" y2="54" gradientUnits="userSpaceOnUse">
      <stop offset="0%" stop-color="#ffffff"/>
      <stop offset="100%" stop-color="#e2e8f0"/>
    </linearGradient>
  </defs>
  <rect width="64" height="64" rx="16" fill="url(#bg)"/>
  <!-- Book spine -->
  <rect x="16" y="12" width="32" height="40" rx="3" fill="url(#page)" opacity="0.95"/>
  <rect x="16" y="12" width="4" height="40" rx="1" fill="#c7d2fe" opacity="0.6"/>
  <!-- Photo placeholder 1 -->
  <rect x="24" y="17" width="19" height="13" rx="2" fill="#818cf8" opacity="0.3"/>
  <!-- Mountain/landscape icon inside photo -->
  <path d="M26 27l4-5 3 3.5 2-1.5 5 6H26z" fill="#6366f1" opacity="0.5"/>
  <circle cx="39" cy="20" r="1.5" fill="#fbbf24" opacity="0.7"/>
  <!-- Text lines -->
  <rect x="24" y="34" width="19" height="2" rx="1" fill="#a5b4fc" opacity="0.5"/>
  <rect x="24" y="39" width="14" height="2" rx="1" fill="#a5b4fc" opacity="0.4"/>
  <rect x="24" y="44" width="17" height="2" rx="1" fill="#a5b4fc" opacity="0.3"/>
  <!-- Heart accent -->
  <path d="M42 10c1.5-1.5 4-1.5 5.5 0s1.5 4 0 5.5L42 21l-5.5-5.5c-1.5-1.5-1.5-4 0-5.5s4-1.5 5.5 0z" fill="#f472b6" opacity="0.9"/>
</svg>
